<?xml version="1.0" encoding="iso-8859-1"?>
<svg xmlns="http://www.w3.org/2000/svg" xmlns:xlink="http://www.w3.org/1999/xlink" viewBox="0 0 64 64" width="128px" height="128px" fill="#ffee55"><g><path d="M27,49c-0.553,0-1,0.447-1,1v2c0,0.553,0.447,1,1,1s1-0.447,1-1v-2C28,49.447,27.553,49,27,49z"/><path d="M32,53c0.553,0,1-0.447,1-1v-5c0-0.553-0.447-1-1-1s-1,0.447-1,1v5C31,52.553,31.447,53,32,53z"/><path d="M37,53c0.553,0,1-0.447,1-1v-2c0-0.553-0.447-1-1-1s-1,0.447-1,1v2C36,52.553,36.447,53,37,53z"/><path d="M24,28h-0.958c-2.864,0-5.411,1.716-6.486,4.368l-0.053,0.129c-0.501,1.235-0.355,2.632,0.39,3.737C17.637,37.34,18.877,38,20.21,38H26c2.206,0,4-1.794,4-4C30,30.691,27.309,28,24,28z M26,36h-5.79c-0.677,0-1.281-0.321-1.659-0.883c-0.378-0.561-0.448-1.242-0.195-1.866l0.053-0.129C19.177,31.226,20.996,30,23.042,30H24c2.206,0,4,1.794,4,4C28,35.103,27.103,36,26,36z"/><path d="M43.79,38c1.333,0,2.573-0.66,3.317-1.766c0.745-1.105,0.891-2.502,0.389-3.739l-0.051-0.125C46.369,29.716,43.822,28,40.958,28H40c-3.309,0-6,2.691-6,6c0,2.206,1.794,4,4,4H43.79z M36,34c0-2.206,1.794-4,4-4h0.958c2.046,0,3.865,1.226,4.635,3.124l0.051,0.125c0.254,0.626,0.184,1.308-0.194,1.868C45.071,35.679,44.467,36,43.79,36H38C36.897,36,36,35.103,36,34z"/><path d="M47,40h-9c-0.553,0-1,0.447-1,1s0.447,1,1,1h9c0.553,0,1-0.447,1-1S47.553,40,47,40z"/><path d="M26,40h-9c-0.553,0-1,0.447-1,1s0.447,1,1,1h9c0.553,0,1-0.447,1-1S26.553,40,26,40z"/><path d="M41.576,7.515c-0.736-0.36-1.512-0.662-2.305-0.897c-0.529-0.157-1.086,0.146-1.243,0.675c-0.157,0.529,0.146,1.086,0.675,1.243C39.39,8.738,40.061,9,40.697,9.312c0.142,0.069,0.291,0.102,0.438,0.102c0.37,0,0.726-0.206,0.899-0.561C42.277,8.356,42.072,7.758,41.576,7.515z"/><path d="M44.997,9.816c-0.412-0.369-1.045-0.334-1.412,0.078c-0.368,0.412-0.333,1.044,0.078,1.412c1.4,1.253,2.533,2.822,3.274,4.537c0.163,0.378,0.531,0.604,0.919,0.604c0.132,0,0.267-0.026,0.396-0.082c0.507-0.22,0.74-0.808,0.521-1.314C47.918,13.071,46.611,11.261,44.997,9.816z"/><path d="M63.3,54.673L54,25.843V21c0-10.197-8.081-18.52-18.171-18.958C35.427,0.859,34.317,0,33,0h-2c-1.317,0-2.427,0.859-2.829,2.042C18.081,2.48,10,10.803,10,21v4.843l-9.301,28.83c-0.252,0.783-0.17,1.646,0.228,2.368c0.397,0.721,1.082,1.252,1.878,1.458l1.459,0.376c8.163,2.107,16.534,3.244,24.927,3.454l1.146,0.764c0.505,0.337,1.084,0.505,1.663,0.505s1.158-0.168,1.664-0.505l1.146-0.764c8.391-0.21,16.765-1.348,24.926-3.454l1.458-0.376c0.796-0.206,1.48-0.736,1.878-1.457C63.47,56.32,63.553,55.456,63.3,54.673z M30,3c0-0.552,0.448-1,1-1h2c0.552,0,1,0.448,1,1v23c0,0.552-0.448,1-1,1h-2c-0.552,0-1-0.448-1-1V3z M3.155,56.489c-0.197-0.088-0.369-0.219-0.476-0.412c-0.134-0.244-0.161-0.524-0.075-0.79l9.349-28.979L12,21c0-9.036,7.092-16.427,16-16.949v20.901C26.763,24.336,25.391,24,24,24h-1.61c-3.684,0-6.957,2.205-8.341,5.618L3.155,56.489z M32.556,61.429c-0.338,0.225-0.774,0.225-1.11,0L23.303,56h17.395L32.556,61.429z M33.536,43l8.882,10.498c-0.093,0.159-0.172,0.326-0.234,0.502H21.816c-0.063-0.176-0.141-0.343-0.234-0.502L30.464,43H33.536z M31,41v-1c0-0.552,0.448-1,1-1s1,0.448,1,1v1H31z M37.993,60.207l4.795-3.197C43.337,57.614,44.121,58,45,58c1.654,0,3-1.346,3-3c0-1.278-0.807-2.364-1.935-2.795l5.767-8.65c0.307-0.46,0.183-1.08-0.277-1.387c-0.462-0.307-1.081-0.183-1.387,0.277l-6.382,9.572L35,41.634V40c0-1.654-1.346-3-3-3s-3,1.346-3,3v1.634l-8.786,10.384l-6.382-9.572c-0.307-0.46-0.927-0.584-1.387-0.277s-0.584,0.927-0.277,1.387l5.767,8.65C16.807,52.636,16,53.722,16,55c0,1.654,1.346,3,3,3c0.879,0,1.663-0.386,2.212-0.99l4.796,3.197c-7.042-0.385-14.05-1.441-20.91-3.188L15.902,30.37C16.979,27.715,19.524,26,22.39,26H24c1.159,0,2.307,0.289,3.319,0.835c0.32,0.173,0.649,0.318,0.982,0.451C28.784,28.296,29.808,29,31,29h2c1.192,0,2.216-0.704,2.699-1.714c0.333-0.133,0.661-0.278,0.982-0.451C37.693,26.289,38.841,26,40,26h1.61c2.865,0,5.411,1.715,6.487,4.37l10.804,26.649C52.042,58.766,45.034,59.822,37.993,60.207z M44,55c0-0.552,0.448-1,1-1s1,0.448,1,1s-0.448,1-1,1S44,55.552,44,55z M20,55c0,0.552-0.448,1-1,1s-1-0.448-1-1s0.448-1,1-1S20,54.448,20,55z M61.32,56.077c-0.106,0.193-0.279,0.324-0.475,0.411l-10.894-26.87C48.567,26.205,45.294,24,41.61,24H40c-1.391,0-2.763,0.336-4,0.951V4.051C44.908,4.573,52,11.964,52,21v5.157l9.396,29.129C61.481,55.552,61.455,55.833,61.32,56.077z"/></g></svg>