<?xml version="1.0" encoding="iso-8859-1"?>
<svg version="1.1" id="Layer_1" xmlns="http://www.w3.org/2000/svg" xmlns:xlink="http://www.w3.org/1999/xlink" x="0px" y="0px"
	 viewBox="0 0 64 64" style="enable-background:new 0 0 64 64;" xml:space="preserve" fill="#ffee55">
<g>
	<g>
		<path d="M42.374,20.454h-2v-4h2c3.958,0,7.767-2.994,10.228-5.454h-6.88c-0.935,0-1.746,0.298-2.226,0.816l-1.357,1.469
			l-2.938-2.715l1.357-1.469C41.811,7.746,43.645,7,45.722,7h15.185l-2.283,3.169C58.32,10.589,51.111,20.454,42.374,20.454z"/>
	</g>
</g>
<g>
	<g>
		<path d="M21.532,20.454h2v-4h-2c-3.958,0-7.767-2.994-10.228-5.454h6.88c0.935,0,1.746,0.298,2.226,0.816l1.357,1.469l2.938-2.715
			l-1.357-1.469C22.096,7.746,20.262,7,18.185,7H3l2.283,3.169C5.586,10.589,12.795,20.454,21.532,20.454z"/>
	</g>
</g>
<g>
	<path d="M9.543,39.683l8.674,3.249c0.747,0.28,1.579-0.099,1.859-0.847l1.119-2.985c0.28-0.748-0.099-1.58-0.846-1.86l-8.674-3.249
		c-0.748-0.28-1.58,0.099-1.86,0.846l-1.119,2.985C8.416,38.571,8.795,39.403,9.543,39.683z"/>
</g>
<g>
	<path d="M50.424,45.986c-0.688,0-1.346-0.168-1.95-0.501c-2.094-1.153-2.82-3.865-2.896-4.171l-0.265-1.063l7.782-3.438
		l0.562,1.089c0.171,0.331,1.644,3.304,0.689,5.643c-0.427,1.047-1.27,1.805-2.438,2.191C51.406,45.903,50.908,45.986,50.424,45.986
		z M48.487,41.696c0.28,0.578,0.699,1.211,1.248,1.511c0.248,0.136,0.658,0.288,1.355,0.057c0.571-0.189,0.751-0.475,0.844-0.702
		c0.251-0.614,0.098-1.543-0.142-2.325L48.487,41.696z"/>
</g>
<g>
	<path d="M13.441,45.986c-0.484,0-0.982-0.083-1.485-0.25c-1.168-0.387-2.012-1.145-2.438-2.192c-0.953-2.338,0.52-5.311,0.69-5.642
		l0.562-1.089l7.781,3.438l-0.265,1.063c-0.075,0.306-0.802,3.018-2.896,4.171C14.787,45.818,14.129,45.986,13.441,45.986z
		 M12.074,40.237c-0.236,0.762-0.403,1.693-0.144,2.326c0.094,0.227,0.273,0.511,0.844,0.7c0.698,0.231,1.107,0.079,1.354-0.057
		c0.55-0.3,0.968-0.932,1.248-1.511L12.074,40.237z"/>
</g>
<g>
	<path d="M54.483,39.683l-8.674,3.249c-0.748,0.28-1.58-0.099-1.86-0.847l-1.119-2.985c-0.28-0.748,0.099-1.58,0.847-1.86
		l8.674-3.249c0.747-0.28,1.58,0.099,1.86,0.846l1.118,2.985C55.609,38.571,55.23,39.403,54.483,39.683z"/>
</g>
<g>
	<path d="M41,15c-2-3-8-3-8,2C36.5,19.5,41,17,41,15z M31,17c0-5-5.984-5.316-8-2C23,17,27.5,19.5,31,17z M29.952,19
		c0,0.69,0.658,2,2.048,2c1.302,0,1.986-1.31,1.986-2H29.952z M45.037,15.125c0,1.8-0.43,3.275-1.212,4.463
		c-0.26,0.125-0.534,0.237-0.82,0.362C40.96,20.862,38.42,22,32.013,22c-6.408,0-8.948-1.138-10.992-2.05
		c-0.287-0.125-0.56-0.237-0.821-0.362c-0.781-1.188-1.211-2.663-1.211-4.463c0-2.5,1.081-4.525,3.256-5.938
		C24.407,7.787,27.663,7,32.013,7C40.7,7,45.037,10.138,45.037,15.125z"/>
</g>
<g>
	<path d="M48.152,26.495L46,22c-9.569,2.683-18.896,2.595-28,0l-2.144,4.495C26.211,29.782,37.837,29.782,48.152,26.495z"/>
	<path d="M47.057,38.985l6.224-1.777l-3.386-7.072c-5.077,1.674-10.46,2.607-15.883,2.79v27.024
		c0.782-0.034,1.562-0.084,2.337-0.159c4.688-0.391,9.208-1.315,11.461-2.006c1.419-0.43,2.305-1.823,2.109-3.295L47.057,38.985z"/>
	<path d="M30.013,32.926c-5.419-0.184-10.804-1.115-15.896-2.787l-3.372,7.069l6.952,1.985l-3.592,15.298
		c-0.195,1.472,0.69,2.865,2.11,3.295c2.253,0.69,6.772,1.615,11.461,2.006c0.782,0.073,1.561,0.123,2.337,0.158V32.926z"/>
</g>
</svg>